<svg id="Capa_1" enable-background="new 0 0 512 512" height="512" viewBox="0 0 512 512" width="512" xmlns="http://www.w3.org/2000/svg">
    <g>
        <path fill="#FFFFFF" d="m465.235 243.65c0-4.143-3.357-7.5-7.5-7.5h-21.929v-19.922h19.759c4.143 0 7.5-3.357 7.5-7.5s-3.357-7.5-7.5-7.5h-19.759v-19.922h21.929c4.143 0 7.5-3.357 7.5-7.5s-3.357-7.5-7.5-7.5h-29.429c-4.143 0-7.5 3.357-7.5 7.5v69.844c0 4.143 3.357 7.5 7.5 7.5h29.429c4.143 0 7.5-3.358 7.5-7.5z" />
        <path fill="#FFFFFF" d="m314.521 165.986h-20.381c-4.143 0-7.5 3.357-7.5 7.5v70.164c0 1.995.795 3.907 2.209 5.315 1.405 1.399 3.309 2.185 5.291 2.185h.033c.002 0 18.742-.084 23.907-.084 14.549 0 26.386-11.837 26.386-26.386 0-8.707-4.242-16.439-10.764-21.248 2.805-3.887 4.465-8.653 4.465-13.802 0-13.038-10.607-23.644-23.646-23.644zm0 15c4.768 0 8.646 3.878 8.646 8.645s-3.878 8.645-8.646 8.645c-1.471 0-9.095.027-12.881.02v-17.309h12.881zm3.56 55.08c-3.007 0-10.599.028-16.44.052v-22.803c1.486-.019 14.053-.024 16.44-.02 6.278 0 11.386 5.107 11.386 11.386s-5.108 11.385-11.386 11.385z" />
        <path fill="#FFFFFF" d="m375.973 251.15h.019c4.134 0 7.49-3.346 7.5-7.481l.082-33.625 21.019-32.288c2.26-3.472 1.278-8.117-2.193-10.377-3.472-2.262-8.116-1.279-10.377 2.193l-15.953 24.505-16.121-24.691c-2.267-3.468-6.911-4.441-10.381-2.18-3.468 2.265-4.444 6.912-2.18 10.381l21.186 32.447-.082 33.598c-.011 4.142 3.339 7.508 7.481 7.518z" />
        <path fill="#FFFFFF" d="m218.255 181.306c4.142 0 7.5-3.357 7.5-7.5s-3.358-7.5-7.5-7.5h-29.429c-4.142 0-7.5 3.357-7.5 7.5v69.844c0 4.143 3.358 7.5 7.5 7.5h29.429c4.142 0 7.5-3.357 7.5-7.5s-3.358-7.5-7.5-7.5h-21.929v-19.922h19.759c4.142 0 7.5-3.357 7.5-7.5s-3.358-7.5-7.5-7.5h-19.759v-19.922z" />
        <path fill="#FFFFFF" d="m74.646 165.986h-20.382c-4.142 0-7.5 3.357-7.5 7.5v70.164c0 1.995.795 3.907 2.208 5.315 1.406 1.399 3.309 2.185 5.292 2.185h.034c.001 0 18.741-.084 23.907-.084 14.549 0 26.386-11.837 26.386-26.386 0-8.707-4.242-16.439-10.765-21.248 2.805-3.887 4.464-8.653 4.464-13.802 0-13.038-10.607-23.644-23.644-23.644zm0 15c4.767 0 8.645 3.878 8.645 8.645s-3.878 8.645-8.645 8.645c-1.471 0-9.096.027-12.881.02v-17.309h12.881zm3.559 55.08c-3.006 0-10.598.028-16.44.052v-22.803c1.486-.019 14.053-.024 16.44-.02 6.278 0 11.386 5.107 11.386 11.386s-5.108 11.385-11.386 11.385z" />
        <path fill="#FFFFFF" d="m120.466 169.385c-2.265-3.468-6.913-4.441-10.38-2.18-3.468 2.265-4.444 6.912-2.179 10.381l21.186 32.446-.082 33.599c-.01 4.143 3.339 7.509 7.482 7.519h.019c4.133 0 7.489-3.346 7.5-7.481l.082-33.625 21.019-32.288c2.26-3.472 1.277-8.117-2.194-10.377-3.471-2.262-8.117-1.278-10.377 2.193l-15.952 24.505z" />
        <path fill="#FFFFFF" d="m262.198 216.068c4.143 0 7.5-3.357 7.5-7.5s-3.357-7.5-7.5-7.5h-14c-4.142 0-7.5 3.357-7.5 7.5s3.358 7.5 7.5 7.5z" />
        <path fill="#FFFFFF" d="m496.157 247.494c4.981-5.328 16.494-20.237 15.814-43.536-.636-21.768-11.066-36.026-15.52-41.145-.148-.17-.147-.369-.121-.505 1.168-5.973 1.813-12.863 1.915-20.483.358-26.653-9.392-52.016-27.453-71.416-18.221-19.572-42.848-30.809-69.343-31.641-17.613-.557-35.056 3.524-50.455 11.795-.243.129-.516-.021-.661-.234l-.252-.376c-10.612-15.982-27.411-26.08-47.303-28.434-20.877-2.467-39.717 9.944-49.082 17.565-.202.164-.474.176-.632.027-10.149-9.377-32.259-24.731-66.521-22.438-6.96.018-13.917.716-20.681 2.078-4.061.817-6.689 4.772-5.872 8.833.818 4.062 4.771 6.688 8.833 5.872 5.876-1.184 11.925-1.783 17.98-1.783.174 0 .347-.006.521-.019 28.781-1.996 47.163 10.717 55.561 18.475 5.607 5.18 14.326 5.434 20.28.59 7.525-6.125 22.438-16.132 37.852-14.304 10.927 1.293 26.141 6.13 36.568 21.834l.352.525c4.5 6.604 13.164 8.755 20.153 5.003 13.081-7.023 27.916-10.488 42.889-10.018 45.994 1.444 82.9 40.859 82.269 87.862-.09 6.629-.656 12.786-1.639 17.809-.93 4.761.355 9.581 3.525 13.227 3.396 3.903 11.349 14.809 11.843 31.737.518 17.729-8.063 28.883-11.776 32.853-3.191 3.412-4.655 8.034-4.017 12.683.893 6.493 1.384 11.69 1.384 14.635 0 19.472-7.732 37.63-21.771 51.13-2.986 2.871-3.079 7.619-.208 10.604 1.473 1.531 3.438 2.302 5.407 2.302 1.87 0 3.743-.695 5.197-2.094 17.008-16.354 26.375-38.353 26.375-61.942 0-4.622-.829-11.621-1.523-16.677-.013-.088-.015-.258.112-.394z" />
        <path fill="#FFFFFF" d="m433.809 331.961c-9.868 3.241-20.42 4.298-30.964 2.976-5.811-.729-11.656 1.925-14.864 6.769-16.856 25.452-45.114 40.647-75.591 40.647-24.383 0-47.257-9.55-64.41-26.891-3.053-3.086-7.275-4.766-11.615-4.581-4.375.176-8.511 2.212-11.347 5.584-1.447 1.72-3.031 3.365-4.709 4.891-18.505 16.826-47.695 17.046-66.451.497-4.134-3.647-7.605-7.894-10.317-12.621-3.227-5.63-9.728-8.62-16.178-7.435-5.45.998-11.04 1.458-16.616 1.386-45.021-.631-81.796-36.325-83.722-81.262-.495-11.544 1.278-22.814 5.271-33.497 2.298-6.15.419-13.136-4.678-17.383-8.019-6.679-12.618-16.484-12.618-26.9 0-10.155 4.412-19.801 12.104-26.462 5.197-4.499 6.819-11.728 4.037-17.988-3.058-6.881-4.457-14.222-4.158-21.82 1.019-25.942 22.166-46.6 48.143-47.028 6.785-.122 13.388 1.144 19.605 3.728 6.686 2.783 14.322.619 18.567-5.263 6.983-9.672 15.654-17.764 25.774-24.052 3.518-2.186 4.598-6.811 2.412-10.328-2.187-3.518-6.811-4.6-10.329-2.412-11.787 7.323-21.886 16.748-30.019 28.012-.156.215-.409.292-.643.194-8.134-3.383-16.752-5.009-25.615-4.877-33.931.56-61.553 27.547-62.884 61.438-.39 9.914 1.44 19.503 5.439 28.501.082.185.023.408-.148.557-10.985 9.511-17.285 23.289-17.285 37.8 0 14.882 6.567 28.887 18.016 38.425.16.134.316.373.229.608-4.699 12.574-6.787 25.827-6.206 39.39 1.092 25.479 11.861 49.377 30.325 67.293 18.456 17.908 42.667 27.968 68.172 28.324 6.545.094 13.12-.456 19.53-1.63.216-.039.405.044.462.144 3.53 6.153 8.04 11.673 13.405 16.406 11.916 10.512 27.295 16.216 43.356 16.116 16.044-.12 31.354-6.073 43.109-16.763 2.17-1.973 4.221-4.104 6.098-6.333.135-.16.294-.245.473-.253.187.008.27.065.347.143 19.992 20.211 46.654 31.342 75.074 31.342 35.521 0 68.454-17.706 88.097-47.364.081-.123.286-.193.489-.169 12.741 1.602 25.544.326 37.515-3.608 3.936-1.293 6.077-5.531 4.784-9.466-1.293-3.936-5.53-6.082-9.466-4.785z" />
        <path fill="#FFFFFF" d="m101.221 373.057c-23.435 0-42.5 19.065-42.5 42.5 0 19.271 12.998 36.168 31.609 41.09.643.17 1.288.251 1.922.251 3.321 0 6.357-2.223 7.246-5.585 1.059-4.004-1.329-8.108-5.333-9.168-12.038-3.183-20.444-14.116-20.444-26.588 0-15.163 12.336-27.5 27.5-27.5s27.5 12.337 27.5 27.5c0 7.646-3.222 15.008-8.84 20.2-3.042 2.812-3.229 7.557-.417 10.599 2.811 3.041 7.556 3.229 10.598.417 8.681-8.022 13.659-19.4 13.659-31.216 0-23.435-19.065-42.5-42.5-42.5z" />
        <path fill="#FFFFFF" d="m32.17 445.557c-13.785 0-25 11.215-25 25s11.215 25 25 25 25-11.215 25-25-11.214-25-25-25zm0 35c-5.514 0-10-4.486-10-10s4.486-10 10-10 10 4.486 10 10-4.485 10-10 10z" />
    </g>
</svg>