<svg version="1.0" xmlns="http://www.w3.org/2000/svg" width="1600.000000pt" height="1600.000000pt" viewBox="0 0 1600.000000 1600.000000" preserveAspectRatio="xMidYMid meet">
	<g transform="translate(0.000000,1600.000000) scale(0.100000,-0.100000)" fill="#000000" stroke="none">
		<path fill="#FFFFFF" d="M8667 12663 c-3 -5 -602 -2098 -1331 -4653 -730 -2555 -1329 -4653
-1332 -4663 -5 -16 29 -17 662 -15 l668 3 1328 4645 c730 2555 1329 4655 1333
4668 l5 22 -664 0 c-366 0 -667 -3 -669 -7z" />
		<path fill="#FFFFFF" d="M2670 9672 c-728 -911 -1324 -1664 -1324 -1672 0 -8 596 -761 1324
-1672 l1325 -1657 668 0 667 -1 -1330 1662 c-731 915 -1330 1665 -1330 1668 0
3 599 753 1330 1668 l1330 1662 -667 -1 -668 0 -1325 -1657z" />
		<path fill="#FFFFFF" d="M12000 9668 c731 -915 1330 -1665 1330 -1668 0 -3 -599 -753 -1330
-1668 l-1330 -1662 667 1 668 0 1325 1657 c728 911 1324 1664 1324 1672 0 8
-596 761 -1324 1672 l-1325 1657 -668 0 -667 1 1330 -1662z" />
	</g>
</svg>
