<?xml version="1.0" encoding="iso-8859-1"?>
<!-- Generator: Adobe Illustrator 19.0.0, SVG Export Plug-In . SVG Version: 6.00 Build 0)  -->
<svg xmlns="http://www.w3.org/2000/svg" xmlns:xlink="http://www.w3.org/1999/xlink" version="1.1" id="Layer_1" x="0px" y="0px" viewBox="0 0 505 505" style="enable-background:new 0 0 505 505;" xml:space="preserve" width="512" height="512">
	<g>
		<path fill="#FFFFFF" d="M41.616,214.23v97.737c0,4.142,3.357,7.5,7.5,7.5h62.385c4.143,0,7.5-3.358,7.5-7.5V214.23c0-4.142-3.357-7.5-7.5-7.5   H49.116C44.974,206.73,41.616,210.088,41.616,214.23z M56.616,270.599h16.192v33.869H56.616V270.599z M87.809,304.467v-33.869   h16.192v33.869H87.809z M104.001,255.599H87.809V221.73h16.192V255.599z M72.809,221.73v33.868H56.616V221.73H72.809z" />
		<path fill="#FFFFFF" d="M220.397,214.23c0-4.142-3.357-7.5-7.5-7.5h-62.384c-4.143,0-7.5,3.358-7.5,7.5v97.737c0,4.142,3.357,7.5,7.5,7.5h62.384   c4.143,0,7.5-3.358,7.5-7.5V214.23z M205.397,255.599h-16.191V221.73h16.191V255.599z M174.206,221.73v33.868h-16.192V221.73   H174.206z M158.014,270.599h16.192v33.869h-16.192V270.599z M189.206,304.467v-33.869h16.191v33.869H189.206z" />
		<path fill="#FFFFFF" d="M111.501,349.877H49.116c-4.143,0-7.5,3.358-7.5,7.5v97.737c0,4.142,3.357,7.5,7.5,7.5h62.385c4.143,0,7.5-3.358,7.5-7.5   v-97.737C119.001,353.235,115.644,349.877,111.501,349.877z M104.001,398.745H87.809v-33.868h16.192V398.745z M72.809,364.877   v33.868H56.616v-33.868H72.809z M56.616,413.745h16.192v33.869H56.616V413.745z M87.809,447.614v-33.869h16.192v33.869H87.809z" />
		<path fill="#FFFFFF" d="M212.897,349.877h-62.384c-4.143,0-7.5,3.358-7.5,7.5v97.737c0,4.142,3.357,7.5,7.5,7.5h62.384c4.143,0,7.5-3.358,7.5-7.5   v-97.737C220.397,353.235,217.04,349.877,212.897,349.877z M205.397,398.745h-16.191v-33.868h16.191V398.745z M174.206,364.877   v33.868h-16.192v-33.868H174.206z M158.014,413.745h16.192v33.869h-16.192V413.745z M189.206,447.614v-33.869h16.191v33.869   H189.206z" />
		<path fill="#FFFFFF" d="M131.007,112.789c-12.758,0-23.138,10.38-23.138,23.138v29.321c0,4.142,3.357,7.5,7.5,7.5h31.276   c4.143,0,7.5-3.358,7.5-7.5v-29.321C154.146,123.169,143.766,112.789,131.007,112.789z M139.146,157.749h-16.276v-21.821   c0-4.487,3.65-8.138,8.138-8.138s8.139,3.651,8.139,8.138V157.749z" />
		<path fill="#FFFFFF" d="M495.485,261.689c4.143,0,7.5-3.358,7.5-7.5v-72.527c0-3.545-2.482-6.606-5.951-7.338   c-42.676-9.01-75.94-42.434-84.745-85.152c-2.262-10.967-3.408-22.207-3.408-33.408V34.889C408.881,15.651,393.229,0,373.992,0   s-34.889,15.651-34.889,34.889v20.875c0,11.2-1.146,22.44-3.407,33.409c-8.698,42.197-41.27,75.308-83.196,84.794   c-41.927-9.485-74.499-42.597-83.196-84.795c-2.262-10.967-3.408-22.207-3.408-33.408V34.889C165.896,15.651,150.244,0,131.007,0   S96.118,15.651,96.118,34.889v20.875c0,11.2-1.146,22.44-3.407,33.409c-4.574,22.191-15.71,42.135-32.204,57.675   c-3.015,2.84-3.155,7.587-0.315,10.602c2.843,3.016,7.587,3.156,10.603,0.315c18.749-17.666,31.408-40.337,36.608-65.564   c1.961-9.516,3.14-19.218,3.546-28.937h40.118c0.406,9.72,1.585,19.423,3.547,28.938c9.597,46.558,44.75,83.403,90.388,95.391V490   H17.015V187.591c9.155-2.406,18.003-5.843,26.372-10.25c3.665-1.93,5.072-6.466,3.142-10.131c-1.93-3.665-6.465-5.072-10.13-3.142   c-8.945,4.71-18.511,8.161-28.433,10.255c-3.469,0.732-5.951,3.793-5.951,7.338V497.5c0,4.142,3.357,7.5,7.5,7.5H252.5h242.985   c4.143,0,7.5-3.358,7.5-7.5V284.191c0-4.142-3.357-7.5-7.5-7.5s-7.5,3.358-7.5,7.5V490H260V187.592   c45.637-11.987,80.79-48.833,90.388-95.391c1.961-9.516,3.14-19.218,3.546-28.937h40.118c0.406,9.72,1.585,19.423,3.547,28.938   c9.597,46.558,44.75,83.403,90.388,95.391v66.598C487.985,258.332,491.343,261.689,495.485,261.689z M131.007,15   c10.967,0,19.889,8.922,19.889,19.889v13.375h-39.777V34.889C111.118,23.922,120.04,15,131.007,15z M373.992,15   c10.967,0,19.889,8.922,19.889,19.889v13.375h-39.777V34.889C354.104,23.922,363.025,15,373.992,15z" />
		<path fill="#FFFFFF" d="M361.986,245.423c0-21.335-17.357-38.692-38.692-38.692s-38.692,17.357-38.692,38.692v66.544c0,4.142,3.357,7.5,7.5,7.5   h62.385c4.143,0,7.5-3.358,7.5-7.5V245.423z M346.986,245.423v10.176h-16.192v-32.645   C340.192,226.1,346.986,234.98,346.986,245.423z M315.794,222.954v32.645h-16.192v-10.176   C299.602,234.98,306.396,226.1,315.794,222.954z M299.602,270.599h16.192v33.869h-16.192V270.599z M330.794,304.467v-33.869h16.192   v33.869H330.794z" />
		<path fill="#FFFFFF" d="M463.383,245.423c0-21.335-17.356-38.692-38.691-38.692s-38.692,17.357-38.692,38.692v66.544c0,4.142,3.357,7.5,7.5,7.5   h62.384c4.143,0,7.5-3.358,7.5-7.5V245.423z M448.383,245.423v10.176h-16.191v-32.644   C441.589,226.1,448.383,234.98,448.383,245.423z M417.191,222.954v32.645h-16.192v-10.176   C400.999,234.98,407.793,226.1,417.191,222.954z M400.999,270.599h16.192v33.869h-16.192V270.599z M432.191,304.467v-33.869h16.191   v33.869H432.191z" />
		<path fill="#FFFFFF" d="M323.294,349.877c-21.335,0-38.692,17.357-38.692,38.692v66.545c0,4.142,3.357,7.5,7.5,7.5h62.385   c4.143,0,7.5-3.358,7.5-7.5v-66.545C361.986,367.234,344.629,349.877,323.294,349.877z M346.986,388.569v10.176h-16.192v-32.645   C340.192,369.246,346.986,378.126,346.986,388.569z M315.794,366.101v32.645h-16.192v-10.176   C299.602,378.126,306.396,369.246,315.794,366.101z M299.602,413.745h16.192v33.869h-16.192V413.745z M330.794,447.614v-33.869   h16.192v33.869H330.794z" />
		<path fill="#FFFFFF" d="M393.499,462.614h62.384c4.143,0,7.5-3.358,7.5-7.5v-66.545c0-21.335-17.356-38.692-38.691-38.692   s-38.692,17.357-38.692,38.692v66.545C385.999,459.256,389.356,462.614,393.499,462.614z M400.999,413.745h16.192v33.869h-16.192   V413.745z M432.191,447.614v-33.869h16.191v33.869H432.191z M448.383,388.569v10.176h-16.191v-32.644   C441.589,369.246,448.383,378.126,448.383,388.569z M417.191,366.101v32.645h-16.192v-10.176   C400.999,378.126,407.793,369.246,417.191,366.101z" />
		<path fill="#FFFFFF" d="M397.131,165.249v-29.321c0-12.758-10.38-23.138-23.139-23.138c-12.758,0-23.138,10.38-23.138,23.138v29.321   c0,4.142,3.357,7.5,7.5,7.5h31.276C393.773,172.749,397.131,169.391,397.131,165.249z M382.131,157.749h-16.276v-21.821   c0-4.487,3.65-8.138,8.138-8.138s8.139,3.651,8.139,8.138V157.749z" />
	</g>


</svg>
