<svg id="Capa_1" enable-background="new 0 0 512 512" height="512" viewBox="0 0 512 512" width="512" xmlns="http://www.w3.org/2000/svg">
    <g>
        <path fill="#FFFFFF" d="m15 507h89c8.291 0 15-6.709 15-15s-6.709-15-15-15h-15v-106h30v-60h-30c-33.091 0-60 26.909-60 60v106h-14c-8.291 0-15 6.709-15 15s6.709 15 15 15z" />
        <path fill="#FFFFFF" d="m497 477h-15v-106c0-33.091-26.909-60-60-60h-30v60h30v106h-15c-8.291 0-15 6.709-15 15s6.709 15 15 15h90c8.291 0 15-6.709 15-15s-6.709-15-15-15z" />
        <path fill="#FFFFFF" d="m149 374.999c0 17.444 14.387 30.132 29.985 30.132 4.893 0 10.814-1.274 15.224-3.706 18.706-10.21 39.979-15.381 61.264-15.381 21.431 0 44.213 5.464 62.333 15.396 4.409 2.417 9.316 3.691 14.209 3.691 15.696 0 29.985-12.799 29.985-30.132v-67.998c0-17.424-14.352-30.117-29.985-30.117-4.893 0-9.814 1.274-14.209 3.662-18.149 9.946-40.946 15.425-62.377 15.425-21.27 0-42.528-5.186-61.234-15.41-4.395-2.417-10.316-3.691-15.209-3.691-15.696 0-29.985 12.799-29.985 30.132v67.997z" />
        <path fill="#FFFFFF" d="m15 236h89c8.291 0 15-6.709 15-15s-6.709-15-15-15h-15v-106h30v-60h-30c-33.091 0-60 26.909-60 60v106h-14c-8.291 0-15 6.709-15 15s6.709 15 15 15z" />
        <path fill="#FFFFFF" d="m497 206h-15v-106c0-33.091-26.909-60-60-60h-30v60h30v106h-15c-8.291 0-15 6.709-15 15s6.709 15 15 15h90c8.291 0 15-6.709 15-15s-6.709-15-15-15z" />
        <path fill="#FFFFFF" d="m178.985 134.131c4.893 0 10.814-1.274 15.224-3.706 18.706-10.21 39.979-15.381 61.264-15.381 21.431 0 44.213 5.464 62.333 15.396 4.409 2.417 9.316 3.691 14.209 3.691 15.696 0 29.985-12.799 29.985-30.132v-68.867c0-17.424-14.352-30.117-29.985-30.117-4.893 0-9.814 1.274-14.209 3.662-18.149 9.946-40.946 15.425-62.377 15.425-21.27 0-42.528-5.186-61.234-15.41-4.395-2.418-10.317-3.692-15.21-3.692-15.695 0-29.985 12.799-29.985 30.132v68.867c0 17.444 14.387 30.132 29.985 30.132z" />
    </g>
</svg>