<svg height="495pt" viewBox="0 -40 495.224 495" width="495pt" xmlns="http://www.w3.org/2000/svg" style="display: block; transform: scale(-1,1)">
    <path d="m247.765625 416.085938c-11.1875 0-22.511719-.925782-33.679687-2.734376-54.832032-8.976562-102.882813-38.738281-135.3125-83.824218l25.964843-18.6875c27.457031 38.160156 68.113281 63.34375 114.496094 70.925781 46.402344 7.617187 93.265625-3.582031 131.121094-30.796875 36.929687-26.5625 61.855469-65.808594 70.257812-110.515625l31.4375 5.90625c-9.886719 52.816406-39.375 99.183594-83.007812 130.574219-35.613281 25.632812-77.550781 39.152344-121.277344 39.152344zm0 0" fill="#D68910" />
    <path d="m73.941406 179.71875-31.679687-4.511719c9.054687-55.472656 38.832031-103.519531 83.917969-135.953125 44.71875-32.191406 100.128906-45.328125 154.976562-36.414062 52.945312 8.65625 99.902344 36.960937 132.253906 79.679687l-25.503906 19.3125c-27.375-36.160156-67.101562-60.097656-111.902344-67.410156-46.398437-7.597656-93.28125 3.570313-131.136718 30.800781-38.160157 27.441406-63.34375 68.097656-70.925782 114.496094zm0 0" fill="#D68910" />
    <g fill="#fbc02d">
        <path d="m467.90625 276.664062-34.847656-34.832031-34.832032 34.832031c-6.238281 6.238282-16.382812 6.238282-22.621093 0-6.242188-6.242187-6.242188-16.386718 0-22.625l57.453125-57.457031 57.472656 57.457031c6.257812 6.238282 6.257812 16.382813 0 22.625-6.253906 6.238282-16.382812 6.238282-22.625 0zm0 0" />
        <path d="m62.164062 219.285156-57.472656-57.453125c-6.253906-6.242187-6.253906-16.386719 0-22.625 6.242188-6.238281 16.367188-6.238281 22.625 0l34.847656 34.832031 34.832032-34.832031c6.238281-6.238281 16.382812-6.238281 22.625 0 6.238281 6.238281 6.238281 16.382813 0 22.625zm0 0" />
    </g>
</svg>