<?xml version="1.0" standalone="no"?>
<!DOCTYPE svg PUBLIC "-//W3C//DTD SVG 20010904//EN"
 "http://www.w3.org/TR/2001/REC-SVG-20010904/DTD/svg10.dtd">
<svg version="1.0" xmlns="http://www.w3.org/2000/svg"
 width="252.000000pt" height="212.000000pt" viewBox="0 0 252.000000 212.000000"
 preserveAspectRatio="xMidYMid meet">

<g transform="translate(0.000000,212.000000) scale(0.100000,-0.100000)"
fill="#FFFFFF" stroke="none">
<path d="M344 2099 c-196 -25 -346 -211 -332 -410 10 -129 99 -264 211 -318
l48 -23 -48 -30 c-90 -55 -122 -126 -123 -270 0 -139 26 -255 111 -483 80
-215 185 -389 279 -464 24 -19 68 -45 99 -58 50 -20 72 -23 212 -23 183 0 151
-14 366 161 76 62 202 163 280 226 l142 115 278 -214 c329 -253 346 -265 393
-273 177 -30 302 192 181 322 -23 25 -66 60 -271 218 -25 19 -146 113 -269
209 -234 183 -275 205 -345 190 -54 -11 -80 -29 -348 -245 -145 -116 -269
-214 -276 -217 -8 -2 -19 2 -27 9 -26 28 -185 484 -185 531 0 15 58 47 275
153 249 122 277 138 301 174 50 76 30 178 -44 225 -20 13 -194 86 -385 161
-312 123 -354 137 -394 132 -83 -9 -143 -76 -143 -159 0 -98 37 -132 218 -203
67 -27 122 -51 122 -55 0 -4 -15 -11 -33 -17 -49 -15 -244 64 -302 121 -105
106 -76 279 58 348 66 33 133 28 252 -20 55 -22 102 -38 104 -36 10 10 -59
102 -106 140 -84 69 -188 98 -299 83z"/>
</g>
</svg>
