<svg id="Capa_1" enable-background="new 0 0 512 512" height="512" viewBox="0 0 512 512" width="512" xmlns="http://www.w3.org/2000/svg">
    <g>
        <path fill="#FFFFFF" d="m0 150c0 16.538 13.462 30 30 30h166.117c3.662 138.047 98.921 232.933 231.738 270.872 16.424 4.617 32.592-5.298 36.973-20.596 4.605-16.04-4.709-32.585-20.581-37.119-37.485-10.708-72.729-31.264-101.909-57.543-12.056-10.869-19.263-25.942-19.775-41.353-.366-11.177-2.754-27.261-11.982-40.474-5.215-7.456-12.524-13.916-21.709-19.189-28.543-16.47-32.872-40.329-32.872-78.006v-6.592c0-16.538-13.462-30-30-30h-196c-16.538 0-30 13.462-30 30z" />
        <circle fill="#FFFFFF" cx="211" cy="45" r="45" />
        <path fill="#FFFFFF" d="m287.093 180h133.907c16.569 0 30-13.433 30-30 0-16.569-13.431-30-30-30h-143.344c5.167 8.86 8.344 19.023 8.344 30v6.592c0 9.768.361 17.316 1.093 23.408z" />
        <path fill="#FFFFFF" d="m122.597 304.164c-10.24 5.098-16.597 15.381-16.597 26.836v91c0 16.538 13.462 30 30 30s30-13.462 30-30v-72.455l42.556-21.275c-10.397-17.12-18.997-35.229-25.649-54.26z" />
    </g>
</svg>