<?xml version="1.0" standalone="no"?>
<!DOCTYPE svg PUBLIC "-//W3C//DTD SVG 20010904//EN" "http://www.w3.org/TR/2001/REC-SVG-20010904/DTD/svg10.dtd">
<svg version="1.0" xmlns="http://www.w3.org/2000/svg" width="512.000000pt" height="512.000000pt" viewBox="0 0 512.000000 512.000000" preserveAspectRatio="xMidYMid meet">
	<g transform="translate(0.000000,512.000000) scale(0.100000,-0.100000)" fill="#000000" stroke="none">
		<path fill="#FFFFFF" d="M1652 4016 c-200 -74 -372 -142 -383 -152 -51 -46 -65 -133 -30 -189
11 -19 163 -135 394 -300 206 -149 372 -273 369 -276 -4 -3 -225 -85 -492
-182 -267 -96 -492 -178 -501 -182 -11 -4 -74 41 -206 148 -203 165 -235 187
-281 187 -42 0 -442 -147 -471 -173 -28 -26 -51 -76 -51 -111 0 -21 190 -560
258 -731 76 -192 254 -370 453 -453 147 -61 330 -78 485 -47 41 9 284 92 541
186 256 93 468 168 470 165 3 -3 -38 -176 -91 -384 -53 -208 -96 -394 -96
-413 0 -71 70 -139 143 -139 38 0 740 248 785 278 31 20 25 7 283 596 125 285
230 520 232 522 2 3 314 117 693 255 379 138 715 265 747 281 163 87 251 293
203 474 -31 117 -118 224 -226 279 -280 142 -670 185 -997 111 -60 -13 -216
-63 -348 -111 -132 -48 -244 -88 -250 -88 -5 0 -271 130 -590 288 -486 241
-588 288 -630 291 -44 3 -95 -13 -413 -130z m819 -385 c242 -120 418 -212 409
-215 -8 -3 -127 -46 -264 -96 -136 -49 -253 -90 -258 -90 -5 0 -137 91 -291
202 -345 247 -377 271 -373 275 2 2 82 33 177 68 96 35 174 64 175 65 1 0 192
-94 425 -209z m1992 -152 c105 -21 242 -67 295 -99 41 -25 66 -81 58 -129 -12
-74 -7 -72 -802 -362 -584 -213 -744 -275 -766 -297 -19 -19 -104 -201 -263
-562 -128 -294 -240 -538 -247 -543 -27 -16 -342 -127 -346 -122 -3 3 38 175
91 384 54 208 97 394 97 412 0 72 -70 139 -145 139 -28 0 -229 -69 -640 -218
-330 -120 -621 -224 -647 -230 -216 -54 -477 62 -583 258 -16 30 -73 174 -126
320 l-96 265 74 27 74 28 187 -152 c197 -161 239 -188 285 -188 16 0 672 234
1459 520 787 287 1469 530 1517 542 162 38 351 41 524 7z" />
	</g>
</svg>
