<?xml version="1.0" encoding="iso-8859-1"?>
<!-- Generator: Adobe Illustrator 19.0.0, SVG Export Plug-In . SVG Version: 6.00 Build 0)  -->
<svg version="1.1" id="Capa_1" xmlns="http://www.w3.org/2000/svg" xmlns:xlink="http://www.w3.org/1999/xlink" x="0px" y="0px" viewBox="0 0 512.001 512.001" style="enable-background:new 0 0 512.001 512.001;" xml:space="preserve">
	<g>
		<g>
			<path fill="#FFFFFF" d="M287.488,67.192c-15.097-14.825-35.053-22.99-56.193-22.99c-28.725,0-55.428,15.526-69.69,40.519
			c-2.054,3.598-0.801,8.178,2.797,10.231c1.173,0.669,2.449,0.987,3.71,0.987c2.605,0,5.138-1.359,6.521-3.784
			c11.6-20.327,33.312-32.954,56.663-32.954c17.185,0,33.408,6.639,45.681,18.692c2.956,2.903,7.704,2.862,10.606-0.095
			C290.485,74.843,290.443,70.094,287.488,67.192z" />
		</g>
	</g>
	<g>
		<g>
			<path fill="#FFFFFF" d="M457.196,125.736c-10.788-17.761-29.123-30.031-49.512-33.297C392.34,73.176,368.83,61.77,344.151,61.77
			c-4.143,0-7.5,3.358-7.5,7.5c0,4.142,3.357,7.5,7.5,7.5c21,0,40.964,10.136,53.404,27.114c1.239,1.692,3.131,2.787,5.215,3.021
			c17.091,1.914,32.644,11.865,41.605,26.619c1.411,2.324,3.884,3.607,6.417,3.607c1.327,0,2.67-0.352,3.887-1.091
			C458.219,133.89,459.346,129.276,457.196,125.736z" />
		</g>
	</g>
	<g>
		<g>
			<path fill="#FFFFFF" d="M456.137,79.847c-10.905-16.849-28.717-28.448-48.453-31.61c-15.344-19.263-38.854-30.669-63.533-30.669
			c-6.757,0-13.499,0.849-20.074,2.526C311,16.758,297.2,16.755,284.262,19.99C269.605,7.067,250.964,0,231.295,0
			c-27.072,0-52.352,13.793-67.11,36.304c-1.684-0.116-3.349-0.174-4.981-0.174c-38.749,0-70.706,29.634-74.398,67.43
			c-13.394,1.087-26.068,7.167-35.295,17.055c-10.361,11.104-15.487,25.6-14.434,40.817c1.852,26.722,23.394,48.311,50.109,50.218
			c15.327,1.093,30.453-4.359,41.491-14.962c0.563-0.541,1.167-1.011,1.794-1.435c9.792,27.366,27.828,52.646,47.07,79.12
			c-25.381,24.067-45.155,51.646-58.909,82.108h-79.08c-8.326,0-15.1,6.773-15.1,15.1v14.999c0,8.326,6.773,15.1,15.1,15.1H49.31
			l21.702,66.597c2.289,10.272,11.483,17.679,22.049,17.679h5.374l1.12,14.353c0.514,6.557,6.066,11.692,12.643,11.692h19.564
			c6.576,0,12.129-5.136,12.643-11.694l1.12-14.352h191.474l1.12,14.35c0.511,6.558,6.063,11.695,12.643,11.695h19.563
			c6.579,0,12.132-5.137,12.643-11.693l1.121-14.352h5.374c10.565,0,19.761-7.406,22.048-17.679l21.702-66.596h11.758
			c8.326,0,15.1-6.773,15.1-15.1v-14.999c0-8.326-6.773-15.1-15.1-15.1h-38.397c-1.6-4.164-4.438-7.786-8.211-10.334l-2.996-2.024
			c-1.211-0.818-2.121-1.973-2.634-3.339c-2.292-6.111-7.137-10.858-13.292-13.023l-6.783-2.387
			c-1.504-0.529-2.794-1.568-3.631-2.924l-2.024-3.283c-4.169-6.756-10.661-11.703-18.28-13.93
			c-10.315-3.015-21.382-0.688-29.608,6.226l-17.228,14.479c-1.258,1.057-2.855,1.639-4.499,1.639h-20.021
			c-8.633,0-16.503,5.085-20.049,12.955l-7.188,15.946h-23.361c-2.213-24.215,3.411-45.264,16.796-62.628
			c26.264-34.066,42.827-59.689,54.792-84.844c17.253-4.608,32.737-14.76,43.884-29.122c0.652,0.018,1.286,0.027,1.913,0.027
			c4.575,0,9.18-0.396,13.737-1.178c2.541,2.241,5.864,3.765,14.867,6.617c13.485,14.031,32.247,21.578,51.78,20.777
			c34.814-1.432,63.339-29.815,64.938-64.617C490.641,116.12,477.912,92.676,456.137,79.847z M129.616,497h-15.273l-0.862-11.045
			h16.998L129.616,497z M368.178,497h-15.272l-0.862-11.045h16.998L368.178,497z M270.99,346.699
			c1.127-2.502,3.629-4.119,6.374-4.119h20.021c5.168,0,10.193-1.832,14.149-5.156l17.228-14.479
			c4.376-3.678,10.266-4.915,15.749-3.312c4.053,1.185,7.507,3.816,9.724,7.409l2.024,3.283c2.634,4.266,6.688,7.532,11.417,9.197
			l6.784,2.387c1.957,0.688,3.497,2.197,4.226,4.141c1.598,4.259,4.423,7.863,8.178,10.431H266.58L270.99,346.699z M444.969,371.48
			L444.969,371.48c0.055,0.001,0.1,0.046,0.1,0.101v14.999c0,0.055-0.045,0.1-0.1,0.1l0.1-0.1c-0.003,0,0,0-0.003,0l-308.151,0.099
			c-4.143,0-7.5,3.358-7.5,7.5c0,4.142,3.357,7.5,7.5,7.5h280.52l-20.31,62.325c-0.091,0.279-0.166,0.564-0.224,0.852
			c-0.707,3.534-3.836,6.098-7.439,6.098H93.06c-3.604,0-6.733-2.565-7.441-6.099c-0.058-0.288-0.132-0.572-0.223-0.851
			l-20.311-62.326H82.5c4.143,0,7.5-3.358,7.5-7.5c0-4.142-3.357-7.5-7.5-7.5l-45.048-0.099l0.1,0.1c-0.055,0-0.1-0.045-0.1-0.1
			V371.58c0-0.055,0.045-0.1,0.1-0.1H444.969z M231.683,284.694c-15.537,20.153-22.247,44.268-19.998,71.787H133.18
			c13.665-28.068,32.926-53.446,57.375-75.571c2.842-2.571,3.287-6.871,1.034-9.971l-1.902-2.617
			c-17.95-24.682-35.048-48.192-44.952-72.514c0.012,0.009,0.025,0.017,0.037,0.026c0.394,0.298,0.776,0.615,1.141,0.956
			c0.822,0.767,1.637,1.506,2.448,2.232c0.285,0.255,0.569,0.508,0.852,0.759c0.539,0.475,1.076,0.94,1.611,1.397
			c0.709,0.608,1.413,1.197,2.112,1.772c0.113,0.093,0.226,0.186,0.339,0.278c7.105,5.805,13.704,9.913,19.877,12.359
			c9.984,17.885,22.967,30.571,38.623,37.731c2.751,1.257,5.983,0.741,8.204-1.308c15.885-14.651,28.413-28.585,38.147-42.444
			c0.27,0.064,0.543,0.117,0.814,0.179c0.228,0.052,0.457,0.101,0.686,0.151c0.635,0.138,1.271,0.272,1.91,0.395
			c0.216,0.042,0.433,0.08,0.65,0.12c0.647,0.12,1.295,0.235,1.945,0.339c0.219,0.035,0.438,0.065,0.657,0.098
			c0.647,0.098,1.294,0.194,1.944,0.277c0.239,0.031,0.479,0.054,0.718,0.083c0.631,0.075,1.262,0.15,1.895,0.21
			c0.299,0.029,0.599,0.048,0.898,0.073c0.577,0.048,1.153,0.1,1.731,0.137c0.873,0.055,1.746,0.096,2.621,0.124
			c0.265,0.008,0.53,0.007,0.794,0.013c0.591,0.013,1.181,0.028,1.772,0.028c0.052,0,0.103-0.002,0.155-0.002
			c0.243,0,0.486-0.008,0.73-0.011c0.628-0.007,1.256-0.017,1.883-0.038c0.104-0.003,0.207-0.003,0.311-0.006
			C269.128,233.092,254.042,255.694,231.683,284.694z M192.447,217.987c12.097-1.305,23.458-6.425,32.493-14.767
			c3.457-3.19,8.531-3.824,12.631-1.569c1.868,1.027,3.78,1.97,5.721,2.846c-7.915,10.712-17.705,21.575-29.678,32.932
			C205.667,232.925,198.589,226.415,192.447,217.987z M474.49,140.822c-1.245,27.101-23.459,49.203-50.571,50.318
			c-15.764,0.648-30.893-5.687-41.467-17.383c-0.901-0.998-2.055-1.734-3.339-2.133c-10.538-3.272-11.229-4.026-11.784-4.632
			c-0.452-0.494-1.072-1.17-1.976-1.979c-1.806-1.615-4.279-2.259-6.644-1.729c-4.81,1.08-9.707,1.627-14.559,1.627
			c-1.496,0-3.084-0.066-4.997-0.209c-2.641-0.196-5.194,1.016-6.709,3.19c-10.044,14.409-25.197,24.187-42.062,27.575
			c-0.543,0.108-1.087,0.214-1.634,0.308c-0.413,0.072-0.826,0.145-1.241,0.21c-0.895,0.138-1.793,0.258-2.693,0.361
			c-0.288,0.033-0.576,0.063-0.865,0.093c-0.991,0.1-1.985,0.183-2.98,0.239c-0.177,0.01-0.356,0.016-0.534,0.025
			c-1.089,0.053-2.18,0.087-3.271,0.087c-0.78,0-1.559-0.017-2.337-0.044c-0.292-0.01-0.584-0.027-0.876-0.041
			c-0.477-0.023-0.954-0.048-1.431-0.081c-0.364-0.025-0.728-0.055-1.091-0.086c-0.393-0.033-0.786-0.071-1.179-0.111
			c-0.407-0.042-0.813-0.085-1.219-0.135c-0.333-0.04-0.665-0.087-0.998-0.132c-0.446-0.061-0.893-0.12-1.337-0.19
			c-0.215-0.034-0.428-0.074-0.643-0.11c-1.026-0.171-2.047-0.366-3.063-0.584c-0.188-0.041-0.378-0.077-0.566-0.119
			c-0.459-0.103-0.916-0.216-1.373-0.329c-0.301-0.074-0.602-0.147-0.901-0.225c-0.417-0.109-0.831-0.223-1.246-0.34
			c-0.354-0.1-0.708-0.202-1.061-0.308c-4.524-1.352-8.904-3.172-13.047-5.45c-9.758-5.366-21.828-3.883-30.033,3.692
			c-7.776,7.178-17.888,11.131-28.474,11.131c-1.46,0-3.257-0.24-5.429-0.907c-0.07-0.025-0.137-0.055-0.208-0.077
			c-4.696-1.496-10.047-4.579-15.978-9.197c-0.03-0.023-0.059-0.046-0.089-0.069c-1.036-0.809-2.091-1.666-3.162-2.568
			c-0.117-0.099-0.236-0.201-0.354-0.301c-0.394-0.334-0.791-0.675-1.19-1.022c-0.168-0.146-0.336-0.293-0.506-0.442
			c-0.368-0.323-0.738-0.654-1.11-0.987c-0.172-0.154-0.342-0.306-0.516-0.463c-0.472-0.428-0.946-0.864-1.424-1.308
			c-0.06-0.056-0.118-0.108-0.178-0.164c-0.385-0.359-0.777-0.703-1.176-1.037c-0.105-0.088-0.214-0.172-0.32-0.258
			c-0.3-0.245-0.602-0.485-0.909-0.716c-0.121-0.091-0.243-0.178-0.365-0.267c-0.308-0.225-0.618-0.444-0.933-0.655
			c-0.11-0.074-0.222-0.147-0.333-0.22c-0.351-0.229-0.705-0.449-1.063-0.661c-0.075-0.044-0.149-0.089-0.224-0.133
			c-4.542-2.64-9.621-3.966-14.686-3.966c-7.184,0-14.332,2.654-19.854,7.96c-8.101,7.779-18.768,11.617-30.031,10.817
			c-19.308-1.378-34.876-16.98-36.213-36.292c-0.764-11.024,2.942-21.517,10.436-29.547c7.501-8.038,17.683-12.465,28.671-12.465
			c0.703,0,1.476,0.025,2.36,0.078c2.072,0.122,4.084-0.612,5.588-2.028c1.504-1.417,2.356-3.392,2.356-5.458
			c0-0.059-0.001-0.129-0.003-0.2c0.059-32.899,26.842-59.646,59.754-59.646c2.553,0,5.221,0.182,7.93,0.541
			c3.026,0.399,5.988-1.07,7.499-3.718C186.231,27.627,207.943,15,231.295,15c17.185,0,33.408,6.639,45.681,18.692
			c1.967,1.933,4.836,2.63,7.47,1.815c12.072-3.729,25.247-3.92,37.591-0.431c1.334,0.378,2.747,0.377,4.081,0
			c5.889-1.665,11.956-2.509,18.034-2.509c21,0,40.964,10.136,53.404,27.114c1.239,1.692,3.131,2.787,5.215,3.021
			c17.091,1.914,32.644,11.865,41.605,26.619c0.68,1.12,1.642,2.042,2.788,2.674C464.953,101.806,475.424,120.515,474.49,140.822z" />
		</g>
	</g>
</svg>
