<svg id="Layer_32" height="512" viewBox="0 0 64 64" width="512" xmlns="http://www.w3.org/2000/svg" data-name="Layer 32">
    <path fill="#FFFFFF" d="m32 17c-15.4 0-31 2.748-31 8v10c0 4.441 10.574 6.408 16.878 7.185a1 1 0 0 0 1.122-.993v-.192h4.525a8.985 8.985 0 0 0 16.95 0h4.525v.192a1 1 0 0 0 1.122.993c6.304-.777 16.878-2.744 16.878-7.185v-10c0-5.252-15.595-8-31-8zm-29 8c0-2.5 11.032-6 29-6s29 3.5 29 6v3a1.462 1.462 0 0 1 -.552.958c-3.913-3.543-15.264-5.958-28.448-5.958s-24.535 2.415-28.448 5.958a1.462 1.462 0 0 1 -.552-.958zm14 15.055c-10.245-1.393-14-3.761-14-5.055v-3.933c3.163 2.2 9.43 3.4 14 4.005zm2-1.055v-2h4.059a8.5 8.5 0 0 0 0 2zm13 6a7 7 0 1 1 7-7 7.008 7.008 0 0 1 -7 7zm8.941-6a8.5 8.5 0 0 0 0-2h4.059v2zm4.937-5.8a1 1 0 0 0 -.878.992v.808h-4.525a8.985 8.985 0 0 0 -16.95 0h-4.525v-.808a1 1 0 0 0 -.878-.992c-6.485-.8-10.542-1.983-12.8-3.1 3.4-2.6 13.198-5.1 26.678-5.1s23.278 2.5 26.683 5.1c-2.263 1.117-6.32 2.3-12.805 3.1zm15.122 1.8c0 1.294-3.755 3.662-14 5.055v-4.983c4.57-.609 10.837-1.8 14-4.005z" />
    <path fill="#FFFFFF" d="m31 37h2v2h-2z" />
    <path fill="#FFFFFF" d="m35 37h2v2h-2z" />
    <path fill="#FFFFFF" d="m27 37h2v2h-2z" />
</svg>