<?xml version="1.0" encoding="iso-8859-1"?>
<!-- Generator: Adobe Illustrator 19.0.0, SVG Export Plug-In . SVG Version: 6.00 Build 0)  -->
<svg version="1.1" id="Layer_1" xmlns="http://www.w3.org/2000/svg" xmlns:xlink="http://www.w3.org/1999/xlink" x="0px" y="0px"
	 viewBox="0 0 512.001 512.001" style="enable-background:new 0 0 512.001 512.001;" xml:space="preserve">
<g>
	<g>
		<circle fill="#ffffff" cx="251.221" cy="88.132" r="40.117"/>
	</g>
</g>
<g>
	<g>
		<path fill="#ffffff"  d="M432.806,100.669c-22.312,0-40.401,12.349-40.401,27.582c0,1.805,0.262,3.567,0.746,5.275l-37.274,31.752l-49.832-19.973
			c-2.996-1.2-6.194-1.816-9.421-1.813l-95.029,0.099l-50.066-28.77l-0.19-65.49c9.472-5.047,15.57-12.909,15.57-21.749
			C166.908,12.349,148.82,0,126.507,0c-22.313,0-40.402,12.349-40.402,27.582c0,12.919,13.012,23.759,30.575,26.756l0.205,70.584
			c0.018,6.187,3.333,11.897,8.698,14.981l74.975,42.895v306.089c-0.001,12.765,10.676,23.114,23.442,23.115h0.002
			c12.765,0,23.113-10.347,23.114-23.113l0.011-162.338l29.79-0.086l52.192,23.494l-9.308,57.77
			c-1.728,10.723,4.231,20.886,13.805,24.937c-9.236,5.055-15.156,12.817-15.156,21.527c0,15.233,18.088,27.582,40.402,27.582
			c22.312,0,40.402-12.348,40.402-27.582c0-14.972-17.476-27.148-39.258-27.562c2.772-3.157,4.731-7.094,5.448-11.548l12.126-75.255
			c1.662-10.317-3.804-20.466-13.332-24.754l-61.175-27.537V181.404l49.669,19.953c5.971,2.384,12.774,1.267,17.67-2.904
			l51.284-43.687c3.534,0.689,7.262,1.068,11.121,1.068c22.313,0,40.402-12.349,40.402-27.582
			C473.207,113.018,455.119,100.669,432.806,100.669z"/>
	</g>
</g>
<g>
	<g>
		<ellipse fill="#ffffff"  cx="79.193" cy="326.682" rx="40.402" ry="27.582"/>
	</g>
</g>
<g>
	<g>
		<ellipse fill="#ffffff" cx="373.832" cy="27.582" rx="40.402" ry="27.582"/>
	</g>
</g>
</svg>
