<svg id="Layer_1" enable-background="new 0 0 512 512" height="512" viewBox="0 0 512 512" width="512" xmlns="http://www.w3.org/2000/svg">
    <g>
        <path fill="#FFFFFF" d="m246.88 239.904c-11.729-13.143-27.876-20.381-45.467-20.381-14.226 0-27.905 7.551-36.97 12.554-.282.155-.622.344-.994.549-.363-.201-.695-.385-.971-.537-9.038-5.004-22.696-12.565-37.006-12.565-17.591 0-33.738 7.238-45.467 20.381-10.874 12.184-16.863 28.147-16.863 44.949 0 20.992 7.006 49.143 19.221 77.234 5.393 12.403 11.22 23.245 16.851 31.355 5.774 8.315 14.976 19.37 28.161 19.37 7.742 0 17.59-4.362 22.014-16.606 2.232-6.178 4.146-12.939 6.173-20.1 1.795-6.344 4.96-17.521 8.061-24.87 2.925 6.736 5.441 15.956 7.884 24.91 1.944 7.128 3.78 13.86 5.959 19.98 4.366 12.257 14.189 16.628 21.933 16.632 13.204 0 22.417-11.209 28.198-19.642 5.598-8.166 11.42-19.086 16.839-31.581 12.269-28.301 19.306-56.251 19.306-76.685.001-16.801-5.988-32.765-16.862-44.947zm-29.943 109.69c-4.667 10.762-9.527 19.943-14.057 26.55-.064.095-.128.188-.192.279-.748-2.621-1.499-5.373-2.269-8.195-2.998-10.989-6.099-22.354-10.516-31.61-6.526-13.678-15.318-20.613-26.134-20.613h-.655c-21.695 0-29.504 27.586-36.394 51.927-.866 3.061-1.711 6.043-2.552 8.876-.112-.158-.225-.319-.34-.484-4.526-6.519-9.36-15.58-13.98-26.206-10.32-23.733-16.731-48.741-16.731-65.264 0-9.42 3.283-18.286 9.244-24.965 5.965-6.685 14.173-10.365 23.111-10.365 6.571 0 16.154 5.306 22.501 8.819 6.799 3.765 9.938 5.344 13.662 5.796l1.821.222 1.82-.226c3.709-.457 6.849-2.034 13.656-5.795 6.361-3.511 15.972-8.816 22.48-8.816 8.938 0 17.145 3.681 23.11 10.365l.001.001c5.961 6.678 9.243 15.543 9.243 24.963.001 15.99-6.448 40.798-16.829 64.741z" />
        <path fill="#FFFFFF" d="m444.971 339.4c-8.277 0-14.988 6.716-14.988 15s6.71 15 14.988 15c20.431 0 37.053 16.636 37.053 37.083s-16.622 37.083-37.053 37.083-37.053-16.636-37.053-37.083v-214.899c0-43.13-35.061-78.219-78.156-78.219h-2.878v-30.265c0-24.629-20.021-44.666-44.63-44.666h-237.624c-24.61 0-44.63 20.037-44.63 44.666v295.84c0 52.177 42.415 94.626 94.549 94.626h137.787c52.134 0 94.549-42.449 94.549-94.626v-235.574h2.878c26.567 0 48.18 21.631 48.18 48.219v214.898c0 36.989 30.069 67.083 67.029 67.083 36.959 0 67.029-30.094 67.029-67.083s-30.07-67.083-67.03-67.083zm-400.341-270.966h237.625c8.08 0 14.654 6.579 14.654 14.666v30.266h-74.653c-8.278 0-14.988 6.716-14.988 15v23.551c0 .317-.258.575-.574.575h-86.502c-.317 0-.575-.258-.575-.575v-23.551c0-8.284-6.71-15-14.988-15h-74.653v-30.266c0-8.087 6.574-14.666 14.654-14.666zm187.706 375.132h-137.787c-35.606 0-64.573-28.991-64.573-64.626v-235.574h59.665v8.551c0 16.859 13.705 30.575 30.551 30.575h86.502c16.845 0 30.55-13.716 30.55-30.575v-8.551h59.665v235.574c0 35.635-28.968 64.626-64.573 64.626z" />
    </g>
</svg>