<?xml version="1.0" standalone="no"?>
<!DOCTYPE svg PUBLIC "-//W3C//DTD SVG 20010904//EN"
 "http://www.w3.org/TR/2001/REC-SVG-20010904/DTD/svg10.dtd">
<svg version="1.0" xmlns="http://www.w3.org/2000/svg"
 width="497.000000pt" height="497.000000pt" viewBox="0 0 497.000000 497.000000"
 preserveAspectRatio="xMidYMid meet">

<g transform="translate(0.000000,497.000000) scale(0.100000,-0.100000)"
fill="#ffffff" stroke="none">
<path d="M1560 4724 c-14 -2 -52 -9 -85 -15 -188 -34 -377 -155 -490 -314
-131 -185 -182 -394 -172 -710 11 -348 63 -519 270 -882 103 -181 107 -198
107 -501 0 -1061 187 -1780 523 -2010 113 -79 248 -39 312 92 20 41 28 82 41
201 79 779 270 1445 414 1445 139 0 319 -607 404 -1356 14 -120 33 -241 42
-268 9 -27 35 -68 58 -91 103 -107 247 -72 389 94 256 301 397 974 397 1896 0
300 4 317 105 495 209 367 261 537 272 885 6 211 -9 331 -58 480 -103 312
-345 509 -681 555 -180 25 -369 -12 -613 -123 -118 -53 -155 -64 -253 -77
-126 -17 -241 8 -427 92 -114 52 -183 75 -268 93 -71 16 -244 27 -287 19z
m190 -214 c87 -14 168 -40 324 -106 170 -72 263 -94 394 -94 138 0 231 20 392
86 215 89 301 114 404 120 117 8 214 -12 321 -65 242 -120 355 -344 355 -705
0 -320 -49 -500 -221 -816 -49 -91 -101 -201 -116 -245 -26 -79 -26 -84 -34
-470 -7 -392 -21 -590 -59 -835 -66 -433 -168 -716 -308 -859 -59 -60 -65 -64
-77 -48 -7 10 -16 51 -20 90 -45 496 -150 1001 -264 1282 -157 384 -367 488
-562 278 -183 -198 -327 -715 -414 -1483 -9 -79 -21 -152 -26 -162 -10 -18
-12 -18 -40 3 -50 35 -117 128 -163 224 -158 329 -246 884 -246 1560 0 364
-11 415 -126 620 -212 377 -254 520 -254 861 0 288 55 451 199 595 145 145
329 202 541 169z"/>
<path d="M1525 4222 c-48 -30 -104 -93 -130 -147 -48 -98 -60 -167 -59 -340 0
-240 36 -390 139 -584 58 -107 84 -131 147 -131 39 0 50 4 72 31 39 46 35 89
-19 179 -89 148 -134 321 -135 517 0 142 31 241 91 285 68 50 78 121 25 174
-40 40 -83 45 -131 16z"/>
</g>
</svg>
