<?xml version="1.0" encoding="utf-8"?>
<!-- Generator: Adobe Illustrator 24.1.2, SVG Export Plug-In . SVG Version: 6.00 Build 0)  -->
<svg version="1.1" id="Ebene_1" xmlns="http://www.w3.org/2000/svg" xmlns:xlink="http://www.w3.org/1999/xlink" x="0px" y="0px"
	 viewBox="0 0 1024 1024" style="enable-background:new 0 0 1024 1024;" xml:space="preserve">
<style type="text/css">
	.st0{fill:#FFFFFF;}
</style>
<path class="st0" d="M1008,112c-8.8,0-15.9,7.1-16,15.8c0,0.6-0.6,14.6-11.2,35.1c-18.3,35.4-51.5,62.4-76.2,78.8
	c-51.2,34.1-121.5,61.4-208.9,81c-22.6,5.1-46.4,9.6-71.2,13.7V264c0-4.7-3.8-8.5-8.5-8.5h-7.5v-31h7.5c4.7,0,8.5-3.8,8.5-8.5v-16
	c0-4.7-3.8-8.5-8.5-8.5h-48c-4.7,0-8.5,3.8-8.5,8.5v16c0,4.7,3.8,8.5,8.5,8.5h7.5v31H568c-4.7,0-8.5,3.8-8.5,8.5v81.6
	c-20.4,2.4-41.4,4.5-63,6.4v-88c0-4.7-3.8-8.5-8.5-8.5h-7.5v-31h7.5c4.7,0,8.5-3.8,8.5-8.5v-16c0-4.7-3.8-8.5-8.5-8.5h-48
	c-4.7,0-8.5,3.8-8.5,8.5v16c0,4.7,3.8,8.5,8.5,8.5h7.5v31H440c-4.7,0-8.5,3.8-8.5,8.5v92.3c-20.5,1.1-41.5,1.9-63,2.5V264
	c0-4.7-3.8-8.5-8.5-8.5h-7.5v-31h7.5c4.7,0,8.5-3.8,8.5-8.5v-16c0-4.7-3.8-8.5-8.5-8.5h-48c-4.7,0-8.5,3.8-8.5,8.5v16
	c0,4.7,3.8,8.5,8.5,8.5h7.5v31H312c-4.7,0-8.5,3.8-8.5,8.5v96c-5.1,0-10.3,0-15.5,0c-57.7,0-111.9,22.5-152.7,63.3
	c-19,19-34,40.9-44.7,64.7H64.5v-32c0-4.7-3.8-8.5-8.5-8.5H32.5V424c0-4.7-3.8-8.5-8.5-8.5H8c-4.7,0-8.5,3.8-8.5,8.5v176
	c0,4.7,3.8,8.5,8.5,8.5h16c4.7,0,8.5-3.8,8.5-8.5v-23.5H56c4.7,0,8.5-3.8,8.5-8.5v-32h11.2c-2.4,13.1-3.7,26.4-3.7,40
	c0,57.7,22.5,111.9,63.3,152.7c19,19,41,34.1,64.8,44.7C203,854.7,270,920,352,920h224c57.7,0,111.9-22.5,152.7-63.3
	c19-19,34-40.9,44.7-64.7H864c48.5,0,88-39.5,88-88s-39.5-88-88-88h-90.6c-10.6-23.8-25.7-45.7-44.7-64.7
	c-29.1-29.1-65.1-48.9-104.2-57.8v-68c23.6,2.8,46.1,6,67.7,9.5c87.6,14.3,158.3,34.2,210.3,59.2c84.7,40.7,89.4,80.6,89.6,82.3
	c0.2,8.6,7.3,15.6,16,15.6c8.8,0,16-7.2,16-16V384V128C1024,119.2,1016.8,112,1008,112z M788.3,664H864c22.1,0,40,17.9,40,40
	s-17.9,40-40,40h-75.7c2.4-13.1,3.7-26.4,3.7-40S790.8,677.1,788.3,664z M368.5,408.8c21.5,0.4,42.5,1.1,63,1.9V488h-63V408.8z
	 M496.5,414c21.6,1.3,42.6,2.9,63,4.7V488h-63V414z M368.5,536h63v80h-63V536z M496.5,536h63v80h-63V536z M368.5,664h63v80h-63V664z
	 M496.5,664h63v80h-63V664z M303.5,744H288c-12.4,0-24.5-1.4-36.2-3.9c7.7-27.7,26.7-50.8,51.7-64V744z M368.5,792h63v80h-63V792z
	 M496.5,792h63v80h-63V792z M288,408c5.2,0,10.4,0,15.5,0v80H144.9C174.6,440,227.6,408,288,408z M206.8,723
	c-51.7-28.7-86.8-83.8-86.8-147c0-13.8,1.7-27.2,4.8-40h178.7v87.9C257.5,639.5,221.2,676.5,206.8,723z M250.1,788.7
	c12.4,2.2,25.1,3.3,37.9,3.3h15.5v68C276.4,845.6,256.3,819.6,250.1,788.7z M624.5,864.9V792h94.6
	C697.7,826.6,664.2,852.9,624.5,864.9z M739.2,664c3.1,12.8,4.8,26.2,4.8,40s-1.7,27.2-4.8,40H624.5v-80H739.2z M719.1,616h-94.6
	v-72.9C664.2,555.1,697.7,581.4,719.1,616z M992,576c0,0.1,0,0.3,0,0.4C992,576.1,992,576,992,576z"/>
</svg>
