<svg id="Layer_1" enable-background="new 0 0 512 512" height="512" viewBox="0 0 512 512" width="512" xmlns="http://www.w3.org/2000/svg">
    <path fill="#FFFFFF" d="m453.391 375.527c-4.266 0-8 3.383-8 8.12 0 4.418 3.582 8 8 8s8-3.582 8-8c0-4.737-3.735-8.12-8-8.12z" />
    <path fill="#FFFFFF" d="m512 150.095v-44.286c0-38.446-42-64.752-78.242-46.384-12.093-20.935-44.024-18.338-52.156 4.68l-5.476 15.555c-6.745 19.096 8.507 38.705 28.964 37.426.974 13.956 6.115 27.603 15.575 39.24-3.584 9.772-9.225 24.337-14.92 35.743-12.648 25.295-50.341 54.582-80.955 73.439-9.488-5.749-25.554-7.001-37.731-7.001-11.274 0-25.45 4.317-36.995 11.266-35.655 21.465-13.442 40.194-152.928 80.074l-75.018 16.671c-13.022 2.893-22.118 14.232-22.118 27.572v34.373c0 8.359 2.695 16.096 7.251 22.405-4.066.378-7.251 3.796-7.251 7.962 0 4.418 3.582 8 8 8h496c4.418 0 8-3.582 8-8s-3.582-8-8-8h-2.885c-3.45-17.983-18.105-31.801-36.368-34.071l-3.356-.421c0-11.99-16-11.183-16-.811v7.87c0 4.033 3.002 7.436 7.004 7.938 10.89 1.366 19.156 1.27 26.881 10.028 2.447 2.771 4.264 5.998 5.365 9.464h-51.5c-6.749 0-12.24-5.491-12.24-12.24 0-34.074 0-136.674 0-174.94 0-4.418-3.582-8-8-8s-8 3.582-8 8v46.383c-29.355 12.33-55.45 19.789-55.068 19.673-97.613 29.689-119.998 39.855-242.732 59.057v-25.133c137.232-39.909 120.154-61.445 151.217-80.146 8.917-5.368 20.469-8.974 28.743-8.974 16.247 0 25.737 2.36 29.408 4.649l11.349 24.584c1.852 4.012 6.605 5.763 10.617 3.91 4.011-1.852 5.762-6.605 3.91-10.616l-8.469-18.345c19.713-12.273 69.198-45.499 86.183-79.469 4.819-9.652 9.552-21.304 13.157-30.77 8.871 6.735 19.382 11.516 30.873 13.668 15.298 47.866 41.846 64.843-2.697 97.635v-53.735c0-27.085-34.497-37.114-35.262-21.182-.21 4.413 3.196 8.162 7.609 8.372 6.425.307 11.652 6.053 11.652 12.81v125.63c0 4.418 3.582 8 8 8s8-3.582 8-8v-52.511c26.865-17.265 40.488-35.041 40.488-52.878 0-23.871-11.049-36.268-20.536-63.022 17.186-1.663 30.657-15.89 30.657-33.142zm-496 243.995c0-5.783 3.943-10.699 9.589-11.953l65.511-14.558v23.958l-44.179 8.836c-3.166.633-5.642 3.109-6.275 6.276l-8.651 43.256c-9.24-2.75-15.995-11.322-15.995-21.442zm299.675-37.136c44.543-13.802 60.115-17.827 89.226-29.615 0 119.518-1.075 115.48 2.795 123.49h-359.57l7.163-35.813c130.346-26.069 125.883-16.388 260.386-58.062zm75.54-271.973 5.476-15.554c4.428-12.53 23.529-10.256 24.767 2.843.107 1.777-.023 3.259-.644 5.018-5.59 15.869-5.811 19.457-11.575 22.432-10.036 5.161-21.753-4.182-18.024-14.739zm104.785 65.114c0 9.542-8.087 17.306-18.027 17.306-12.915 0-25.719-4.18-36.24-12.591l6.915-17.162c1.651-4.098-.332-8.759-4.43-10.41-4.102-1.651-8.76.333-10.41 4.431l-4.049 10.046c-5.716-8.708-8.861-18.837-8.861-29.579 0-1.521-.373-.319 2.503-3.098 2.392-2.316 4.317-4.929 5.83-8.064 1.29-2.676 6.911-18.974 7.298-20.407.38-1.408.727-3.256.863-4.799 16.521-10.807 39.199-7.344 51.273 8.494-7.958 11.182-20.906 17.344-34.127 17.344-4.418 0-8 3.582-8 8s3.582 8 8 8c14.583 0 28.66-5.41 39.323-15.183 2.67-2.447 2.139-9.753 2.139 47.672z" />
</svg>