<?xml version="1.0" encoding="utf-8"?>
<!-- Generator: Adobe Illustrator 24.1.2, SVG Export Plug-In . SVG Version: 6.00 Build 0)  -->
<svg version="1.1" id="Ebene_1" xmlns="http://www.w3.org/2000/svg" xmlns:xlink="http://www.w3.org/1999/xlink" x="0px" y="0px"
	 viewBox="0 0 1024 1024" style="enable-background:new 0 0 1024 1024;" xml:space="preserve">
<style type="text/css">
	.st0{fill:#FFFFFF;}
</style>
<g>
	<rect x="400" y="960" class="st0" width="224" height="64"/>
	<path class="st0" d="M720,260C833.5,169.7,799,0,655,0C547.7,0,504.8,79.4,490.1,119c-18.5-15.5-36.9-32.2-41.8-40.7
		c-10.7-18.6-8.9-55.4-36.2-62.7c-27.3-7.3-55.4,8.9-62.7,36.2c-27.3-7.3-55.4,8.9-62.7,36.2c-7.3,27.3,8.9,55.4,36.2,62.7
		c-7.3,27.3,8.9,55.4,36.2,62.7c27.3,7.3,44.1-25.5,62.7-36.2c8.4-4.9,32.2-10,55.7-14.2l-47.7,178c-18.3-15.4-36.3-31.7-41.1-40.2
		c-10.7-18.6-8.9-55.4-36.2-62.7c-27.3-7.3-55.4,8.9-62.7,36.2c-27.3-7.3-55.4,8.9-62.7,36.2c-7.3,27.3,8.9,55.4,36.2,62.7
		c-7.3,27.3,8.9,55.4,36.2,62.7c27.3,7.3,44.1-25.5,62.7-36.2c8.4-4.9,32.2-10,55.7-14.2l-47.7,178c-18.3-15.4-36.3-31.7-41.1-40.2
		c-10.7-18.6-8.9-55.4-36.2-62.7c-27.3-7.3-55.4,8.9-62.7,36.2c-27.3-7.3-55.4,8.9-62.7,36.2c-7.3,27.3,8.9,55.4,36.2,62.7
		c-7.3,27.3,8.9,55.4,36.2,62.7s44.1-25.5,62.7-36.2c8.4-4.9,32.2-10,55.7-14.2l-47.7,178c-18.3-15.4-36.3-31.7-41.1-40.2
		c-10.7-18.6-8.9-55.4-36.2-62.7s-55.4,8.9-62.7,36.2c-27.3-7.3-55.4,8.9-62.7,36.2c-7.3,27.3,8.9,55.4,36.2,62.7
		c-7.3,27.3,8.9,55.4,36.2,62.7s44.1-25.5,62.7-36.2c8.4-4.9,32.2-10,55.7-14.2l-9.2,34.3c-2.5,9.2,3.6,18.5,13,20
		c29,4.4,84.4,18.2,97.6,59.1h224c0,0,19-144,128-144C835,523,671,299,720,260z M437.1,825.7c-6.9,25.6-33.2,40.8-58.8,33.9
		s-40.8-33.2-33.9-58.8s33.2-40.8,58.8-33.9S443.9,800.1,437.1,825.7z M496.6,603.5c-6.9,25.6-33.2,40.8-58.8,33.9
		s-40.8-33.2-33.9-58.8s33.2-40.8,58.8-33.9S503.5,577.9,496.6,603.5z M556.1,381.3c-6.9,25.6-33.2,40.8-58.8,33.9
		s-40.8-33.2-33.9-58.8c6.9-25.6,33.2-40.8,58.8-33.9C547.8,329.4,563,355.7,556.1,381.3z M615.7,159.2
		c-6.9,25.6-33.2,40.8-58.8,33.9s-40.8-33.2-33.9-58.8c6.9-25.6,33.2-40.8,58.8-33.9S622.5,133.6,615.7,159.2z"/>
</g>
</svg>
