<svg id="Icons" height="512" viewBox="0 0 74 74" width="512" xmlns="http://www.w3.org/2000/svg">
    <path fill="#FFFFFF" d="m3 70h68v2h-68z" />
    <path fill="#FFFFFF" d="m56.188 71.584a84.863 84.863 0 0 1 -10.352-19.226l1.867-.716a82.833 82.833 0 0 0 10.109 18.774z" />
    <path fill="#FFFFFF" d="m17.812 71.584-1.624-1.168a83.246 83.246 0 0 0 10.119-18.774l1.867.716a85.254 85.254 0 0 1 -10.362 19.226z" />
    <path fill="#FFFFFF" d="m33.583 30.114-1.983-.228a68.619 68.619 0 0 0 .405-12.786 1 1 0 0 1 .995-1.1h8a1 1 0 0 1 .71.3c.318.32.308.582.279 1.283a78.884 78.884 0 0 0 .465 12.31l-1.988.222a81.6 81.6 0 0 1 -.495-12.115h-5.9a75.571 75.571 0 0 1 -.488 12.114z" />
    <path fill="#FFFFFF" d="m44.41 48.311a91.407 91.407 0 0 1 -3.4-14.156l1.976-.31a89.412 89.412 0 0 0 3.323 13.844z" />
    <path fill="#FFFFFF" d="m29.6 48.314-1.9-.628a87.471 87.471 0 0 0 3.351-13.841l1.976.31a89.491 89.491 0 0 1 -3.427 14.159z" />
    <path fill="#FFFFFF" d="m41.98 17.2-1.96-.4.88-4.4-3.9-3.119-3.9 3.119.88 4.4-1.96.392-1-5a1 1 0 0 1 .355-.977l5-4a1 1 0 0 1 1.25 0l5 4a1 1 0 0 1 .355.977z" />
    <path fill="#FFFFFF" d="m36 3h2v5h-2z" />
    <path fill="#FFFFFF" d="m47.8 72h-21.6a1 1 0 0 1 -1-1v-1.2a11.8 11.8 0 0 1 23.6 0v1.2a1 1 0 0 1 -1 1zm-20.6-2h19.6v-.2a9.8 9.8 0 0 0 -19.6 0z" />
    <path fill="#FFFFFF" d="m51 53h-28a1 1 0 0 1 -1-1v-4a1 1 0 0 1 1-1h28a1 1 0 0 1 1 1v4a1 1 0 0 1 -1 1zm-27-2h26v-2h-26z" />
    <path fill="#FFFFFF" d="m46 35h-18a1 1 0 0 1 -1-1v-4a1 1 0 0 1 1-1h18a1 1 0 0 1 1 1v4a1 1 0 0 1 -1 1zm-17-2h16v-2h-16z" />
    <path fill="#FFFFFF" d="m20 16h-14a4 4 0 0 1 0-8h1a6 6 0 0 1 12 0h1a4 4 0 0 1 0 8zm-14-6a2 2 0 0 0 0 4h14a2 2 0 0 0 0-4h-2.1a1 1 0 0 1 -.98-1.2 4 4 0 1 0 -7.838 0 1 1 0 0 1 -.982 1.2z" />
    <path fill="#FFFFFF" d="m68 26h-14a4 4 0 0 1 0-8h1a6 6 0 0 1 12 0h1a4 4 0 0 1 0 8zm-14-6a2 2 0 0 0 0 4h14a2 2 0 0 0 0-4h-2.1a1 1 0 0 1 -.98-1.2 4 4 0 1 0 -7.838 0 1 1 0 0 1 -.982 1.2z" />
</svg>