<?xml version="1.0" encoding="utf-8"?>
<!-- Generator: Adobe Illustrator 24.1.2, SVG Export Plug-In . SVG Version: 6.00 Build 0)  -->
<svg version="1.1" id="Ebene_1" xmlns="http://www.w3.org/2000/svg" xmlns:xlink="http://www.w3.org/1999/xlink" x="0px" y="0px"
	 viewBox="0 0 1024 1024" style="enable-background:new 0 0 1024 1024;" xml:space="preserve">
<style type="text/css">
	.st0{fill:#FFFFFF;}
</style>
<g>
	<rect x="384" y="896" class="st0" width="256" height="128"/>
	<path class="st0" d="M779.5,236c2.5,25.9,11.1,48,25.8,48c35.3,0,64-28.7,64-64s-28.7-64-64-64c-14.7,0-23.3,22.1-25.8,48h-30
		c6.9-55.7,12.8-99.4,16-122.3c1.3-9.3-5.7-17.7-15-18.2C639.7,58,633.9,0,512,0S384.3,58,273.5,63.6c-9.4,0.5-16.3,8.9-15,18.2
		c3.2,22.9,9.1,66.6,16,122.3h-30c-2.5-25.9-11.1-48-25.8-48c-35.3,0-64,28.7-64,64s28.7,64,64,64c14.7,0,23.3-22.1,25.8-48h33.9
		c5.8,47.5,12,101.6,17.8,158h-31.7c-2.5-25.9-11.1-48-25.8-48c-35.3,0-64,28.7-64,64s28.7,64,64,64c14.7,0,23.3-22.1,25.8-48h35
		c5.2,52.6,10,106.4,13.6,158h-28.5c-2.5-25.9-11.1-48-25.8-48c-35.3,0-64,28.7-64,64s28.7,64,64,64c14.7,0,23.3-22.1,25.8-48h30.7
		c2.7,43.7,4.4,85.2,4.8,122.3c0.1,7.1,4.8,13.3,11.6,15.2C384,767.9,384,880,384,880h256c0,0,0-112.1,52.5-126.5
		c6.8-1.9,11.5-8.1,11.6-15.2c0.4-37.1,2.1-78.6,4.8-122.3h30.7c2.5,25.9,11.1,48,25.8,48c35.3,0,64-28.7,64-64s-28.7-64-64-64
		c-14.7,0-23.3,22.1-25.8,48H711c3.6-51.6,8.4-105.4,13.6-158h35c2.5,25.9,11.1,48,25.8,48c35.3,0,64-28.7,64-64s-28.7-64-64-64
		c-14.7,0-23.3,22.1-25.8,48h-31.7c5.8-56.4,12.1-110.5,17.8-158H779.5z M352,220c0-17.7,14.3-32,32-32s32,14.3,32,32
		s-14.3,32-32,32S352,237.7,352,220z M372,410c0-17.7,14.3-32,32-32s32,14.3,32,32s-14.3,32-32,32S372,427.7,372,410z M424,632
		c-17.7,0-32-14.3-32-32s14.3-32,32-32s32,14.3,32,32S441.7,632,424,632z M600,632c-17.7,0-32-14.3-32-32s14.3-32,32-32
		s32,14.3,32,32S617.7,632,600,632z M620,442c-17.7,0-32-14.3-32-32s14.3-32,32-32s32,14.3,32,32S637.7,442,620,442z M640,252
		c-17.7,0-32-14.3-32-32s14.3-32,32-32s32,14.3,32,32S657.7,252,640,252z"/>
</g>
</svg>
