<?xml version="1.0" standalone="no"?>
<!DOCTYPE svg PUBLIC "-//W3C//DTD SVG 20010904//EN" "http://www.w3.org/TR/2001/REC-SVG-20010904/DTD/svg10.dtd">
<svg version="1.0" xmlns="http://www.w3.org/2000/svg" width="900.000000pt" height="981.000000pt" viewBox="0 0 900.000000 981.000000" preserveAspectRatio="xMidYMid meet">

    <g transform="translate(0.000000,981.000000) scale(0.100000,-0.100000)" fill="#ffffff" stroke="none">
        <path d="M4337 9784 c-38 -8 -92 -24 -120 -35 -91 -36 -3723 -2139 -3793
-2197 -115 -94 -205 -239 -247 -396 l-22 -81 0 -2175 c0 -2457 -8 -2224 81
-2405 48 -97 108 -174 192 -246 64 -55 989 -590 1147 -664 145 -68 252 -109
372 -141 83 -22 125 -27 277 -32 255 -7 422 21 590 97 296 134 488 422 536
803 6 54 10 812 10 2216 l0 2134 -29 29 -29 29 -267 0 c-163 0 -274 -4 -286
-10 -52 -28 -49 97 -49 -2152 0 -1840 -2 -2091 -15 -2143 -41 -157 -149 -272
-306 -326 -86 -29 -232 -30 -340 -1 -132 35 -105 21 -1062 575 -75 43 -146 91
-157 104 -20 25 -20 46 -20 2130 0 1799 2 2108 14 2131 11 21 108 82 388 244
1806 1044 3225 1862 3253 1875 27 13 42 14 68 6 18 -5 846 -479 1840 -1053
1441 -831 1811 -1048 1822 -1071 13 -25 15 -300 13 -2138 l-3 -2111 -25 -24
c-14 -14 -171 -109 -350 -212 -179 -103 -990 -571 -1803 -1041 -1279 -738
-1484 -853 -1518 -853 -41 0 -67 15 -764 430 -216 129 -237 140 -266 140 -13
0 -75 -29 -138 -64 -138 -75 -218 -111 -374 -167 -64 -22 -121 -47 -128 -55
-17 -20 -3 -60 29 -82 55 -39 1239 -738 1311 -774 111 -55 195 -73 336 -72
124 0 197 14 290 54 26 11 430 241 898 512 1839 1061 2075 1197 2447 1411 375
217 387 224 475 312 101 101 152 180 193 300 l27 80 3 2200 c3 2456 9 2257
-67 2420 -63 133 -160 245 -276 317 -22 14 -548 319 -1170 678 -621 359 -1434
828 -1805 1043 -371 215 -700 400 -730 413 -129 52 -314 68 -453 38z" />
        <path d="M5290 6989 c-332 -27 -605 -97 -855 -219 -460 -226 -690 -589 -687
-1085 2 -325 82 -544 267 -731 102 -103 170 -152 311 -222 271 -136 600 -211
1214 -277 660 -70 1000 -140 1214 -247 70 -35 151 -108 177 -160 28 -55 40
-161 29 -255 -34 -303 -255 -471 -705 -537 -307 -45 -838 -38 -1136 15 -318
56 -527 179 -637 371 -41 70 -87 210 -108 326 -14 77 -22 98 -46 123 -34 33
-9 31 -353 31 -319 0 -292 3 -331 -36 -34 -34 -34 -35 -34 -126 0 -114 23
-274 56 -386 134 -464 496 -784 1060 -939 242 -66 458 -98 784 -115 606 -33
1164 56 1540 245 379 191 609 475 691 856 32 145 32 428 2 569 -95 439 -382
679 -1000 836 -210 53 -415 91 -758 139 -1119 155 -1360 228 -1419 426 -18 59
-21 192 -5 258 39 170 175 292 404 364 334 104 1027 97 1355 -13 139 -47 262
-127 342 -223 61 -73 138 -230 168 -342 29 -111 39 -133 68 -155 23 -19 42
-20 332 -20 290 0 309 1 332 20 45 35 52 70 39 178 -33 270 -111 492 -239 686
-66 100 -219 250 -330 324 -277 184 -633 286 -1127 322 -161 11 -462 11 -615
-1z" />
    </g>
</svg>
