<?xml version="1.0" encoding="utf-8"?>
<!-- Generator: Adobe Illustrator 24.1.2, SVG Export Plug-In . SVG Version: 6.00 Build 0)  -->
<svg version="1.1" id="Ebene_1" xmlns="http://www.w3.org/2000/svg" xmlns:xlink="http://www.w3.org/1999/xlink" x="0px" y="0px"
	 viewBox="0 0 1024 1024" style="enable-background:new 0 0 1024 1024;" xml:space="preserve">
<style type="text/css">
	.st0{fill:#FFFFFF;}
</style>
<path class="st0" d="M992,128H32c-17.7,0-32,14.3-32,32v704c0,17.7,14.3,32,32,32h960c17.7,0,32-14.3,32-32V160
	C1024,142.3,1009.7,128,992,128z M128,848c0,8.8-7.2,16-16,16H48c-8.8,0-16-7.2-16-16v-32c0-8.8,7.2-16,16-16h64c8.8,0,16,7.2,16,16
	V848z M408,864C213.6,864,56,706.4,56,512s157.6-352,352-352s352,157.6,352,352S602.4,864,408,864z M831,760.4
	c2.2,8.3,1.1,16.9-3.2,24.3l-8.4,14.5l13.2,7.6c3.8,2.2,5.1,7.1,2.9,10.9c-1.5,2.6-4.2,4-6.9,4c-1.4,0-2.7-0.3-4-1.1l-13.2-7.6
	l-7.6,13.2c-4.3,7.4-11.2,12.7-19.4,14.9c-2.8,0.7-5.6,1.1-8.3,1.1c-5.5,0-11-1.5-15.9-4.3l-27.7-16c-7.4-4.3-12.7-11.2-14.9-19.4
	s-1.1-16.9,3.2-24.3l24-41.6c4.3-7.4,11.2-12.7,19.4-14.9c2.7-0.7,5.5-1.1,8.3-1.1l76.3-132.2c4.3-7.4,5.4-16,3.2-24.3l-40.7-151.7
	c-2.2-8.1-3.3-16.5-3.3-24.8v-48l-21.6-10.1c-8-3.7-11.5-13.3-7.7-21.3l6.8-14.5c3.7-8,13.3-11.5,21.3-7.7l1.4,0.6v-14.9
	c-9.6-5.5-16-15.9-16-27.7v-48c0-17.6,14.4-32,32-32h32c17.6,0,32,14.4,32,32v48c0,11.8-6.4,22.2-16,27.7v44.7l21.6,10.1
	c8,3.7,11.5,13.3,7.7,21.3l-6.8,14.5c-3.7,8-13.3,11.5-21.3,7.7l-1.4-0.6v18.2c0,2.8,0.4,5.6,1.1,8.3l40.7,151.7
	c6.6,24.8,3.2,50.6-9.6,72.8l-76.3,132.2C829.2,755,830.3,757.6,831,760.4z M960,816c0,8.8-7.2,16-16,16h-16c-8.8,0-16-7.2-16-16
	V656c0-8.8,7.2-16,16-16h16c8.8,0,16,7.2,16,16V816z"/>
<path class="st0" d="M526,462.2c-6.4-15.2-15.7-28.9-27.4-40.7c-11.8-11.8-25.5-21-40.7-27.4c-15.8-6.7-32.5-10-49.8-10
	c-17.3,0-34.1,3.4-49.8,10c-15.2,6.4-28.9,15.7-40.7,27.4c-11.8,11.8-21,25.5-27.4,40.7c-6.7,15.8-10,32.5-10,49.8
	c0,17.3,3.4,34.1,10,49.8c6.4,15.2,15.7,28.9,27.4,40.7c11.8,11.8,25.5,21,40.7,27.4c15.8,6.7,32.5,10,49.8,10
	c17.3,0,34.1-3.4,49.8-10c15.2-6.4,28.9-15.7,40.7-27.4c11.8-11.8,21-25.5,27.4-40.7c6.7-15.8,10-32.5,10-49.8
	C536,494.7,532.6,477.9,526,462.2z M408,544c-17.7,0-32-14.3-32-32s14.3-32,32-32s32,14.3,32,32S425.7,544,408,544z"/>
</svg>
